Coordinates
version=1
nRows=11
nColumns=63
inDegrees=yes

Units are S.I. units (second, meters, Newtons, ...)
If the header above contains a line with 'inDegrees', this indicates whether rotational values are in degrees (yes) or radians (no).

endheader
time	pelvis_tilt	pelvis_list	pelvis_rotation	pelvis_tx	pelvis_ty	pelvis_tz	hip_flexion_r	hip_adduction_r	hip_rotation_r	knee_angle_r	knee_angle_r_beta	ankle_angle_r	subtalar_angle_r	mtp_angle_r	hip_flexion_l	hip_adduction_l	hip_rotation_l	knee_angle_l	knee_angle_l_beta	ankle_angle_l	subtalar_angle_l	mtp_angle_l	L5_S1_Flex_Ext	L5_S1_Lat_Bending	L5_S1_axial_rotation	L4_L5_Flex_Ext	L4_L5_Lat_Bending	L4_L5_axial_rotation	L3_L4_Flex_Ext	L3_L4_Lat_Bending	L3_L4_axial_rotation	L2_L3_Flex_Ext	L2_L3_Lat_Bending	L2_L3_axial_rotation	L1_L2_Flex_Ext	L1_L2_Lat_Bending	L1_L2_axial_rotation	L1_T12_Flex_Ext	L1_T12_Lat_Bending	L1_T12_axial_rotation	Abs_r3	Abs_r2	Abs_r1	Abs_t1	Abs_t2	neck_flexion	neck_bending	neck_rotation	arm_flex_r	arm_add_r	arm_rot_r	elbow_flex_r	pro_sup_r	wrist_flex_r	wrist_dev_r	arm_flex_l	arm_add_l	arm_rot_l	elbow_flex_l	pro_sup_l	wrist_flex_l	wrist_dev_l
      5.56666667	    -13.24920533	     -6.47994361	     49.98536537	      0.35472489	      1.07398195	      0.29076804	     14.86406654	     -7.15463100	    -16.68204708	     12.77795383	      0.22301737	     17.86634228	     15.58149884	      0.00000000	     21.03051816	     -0.79633283	    -22.19264865	     29.03976153	      0.50683945	     22.21478663	     14.27192237	      0.00000000	     -0.21897086	     -0.16277844	      0.28647491	     -0.40665078	     -0.21649533	      0.30437959	     -0.35974722	     -0.39577950	      0.30437959	     -0.25026179	     -0.39577950	      0.25066554	     -0.20333634	     -0.33193780	      0.23276086	     -0.12511995	     -0.25214381	      0.21485618	     -1.56408693	     -1.84138229	      1.59328748	      0.00000000	      0.00000000	     -1.72126036	      3.49632063	    -16.22906721	      7.13200777	     -7.33828219	     17.71074021	     79.65007557	     86.31467628	     -5.83891830	     18.18479950	    -12.02257340	    -30.28870426	     63.61527569	     38.83000499	     88.34626215	     -8.14436038	      3.51189238
      5.58333333	    -13.32231201	     -6.49894397	     50.07913143	      0.35392071	      1.07458699	      0.29004065	     14.52323284	     -7.23050661	    -15.95439159	     12.10617097	      0.21129254	     17.88788379	     15.56820284	      0.00000000	     21.40221584	     -0.75220810	    -22.01906394	     29.31576910	      0.51165669	     23.45987827	     13.78608163	      0.00000000	     -0.20297902	     -0.17291131	      0.39505602	     -0.37695234	     -0.22997204	      0.41974702	     -0.33347424	     -0.42041655	      0.41974702	     -0.23198472	     -0.42041655	      0.34567402	     -0.18848632	     -0.35260074	      0.32098302	     -0.11598221	     -0.26783961	      0.29629202	     -1.44985886	     -1.95600728	      2.19718307	      0.00000000	      0.00000000	     -1.95378494	      3.54876966	    -17.03279496	      6.60198399	     -7.66208946	     17.22238679	     82.40710018	     86.35053911	     -5.99696300	     18.78051147	    -11.67923700	    -30.78299244	     66.47236162	     39.07070022	     88.41477547	     -9.38263572	      2.71679538
      5.60000000	    -13.37629485	     -6.47264495	     50.07810758	      0.35314298	      1.07512468	      0.28871804	     14.19059523	     -7.31525145	    -15.05853638	     11.52528948	      0.20115425	     17.88129988	     15.38177186	      0.00000000	     21.55473788	     -0.67722503	    -22.11555558	     29.34895400	      0.51223588	     24.96253133	     13.05497354	      0.00000000	     -0.18850113	     -0.18802424	      0.53204407	     -0.35006544	     -0.25007224	      0.56529682	     -0.30968850	     -0.45716214	      0.56529682	     -0.21543794	     -0.45716214	      0.46553856	     -0.17504215	     -0.38341903	      0.43228580	     -0.10770954	     -0.29124955	      0.39903305	     -1.34644469	     -2.12696783	      2.95906949	      0.00000000	      0.00000000	     -2.14537462	      3.80919312	    -17.85895339	      5.78721894	     -8.03494346	     16.54513055	     85.24128039	     86.28478147	     -6.19627528	     19.13174267	    -11.58455180	    -31.02834366	     67.98615776	     39.03545305	     88.39729070	    -10.24829910	      2.12667043
      5.61666667	    -13.40249524	     -6.39728906	     49.97650393	      0.35255146	      1.07559839	      0.28716082	     13.87161525	     -7.39785317	    -14.06758453	     11.05209122	      0.19289538	     17.93544433	     15.34924260	      0.00000000	     21.54637516	     -0.59152616	    -22.44874522	     29.23036851	      0.51016617	     26.38802285	     12.01799714	      0.00000000	     -0.17737164	     -0.20673664	      0.67350018	     -0.32939688	     -0.27495973	      0.71559394	     -0.29140387	     -0.50265947	      0.71559394	     -0.20271805	     -0.50265947	      0.58931266	     -0.16470731	     -0.42157736	      0.54721890	     -0.10135016	     -0.32023506	      0.50512514	     -1.26694790	     -2.33864625	      3.74580595	      0.00000000	      0.00000000	     -2.37631055	      3.93474927	    -18.78185405	      4.89882862	     -8.33875855	     15.83166281	     87.91379667	     86.19767184	     -6.38190151	     19.41697578	    -11.61801028	    -31.13410156	     68.64900354	     38.81843582	     88.42935106	    -10.74445652	      1.69034026
      5.63333333	    -13.35214401	     -6.28909005	     49.96109657	      0.35205410	      1.07608276	      0.28521427	     13.44901362	     -7.45702731	    -13.21231313	     10.57151575	      0.18450776	     17.95232010	     15.43660565	      0.00000000	     21.33569113	     -0.46815924	    -22.81589194	     28.90597018	      0.50450435	     27.55115896	     11.07173101	      0.00000000	     -0.16956250	     -0.22111045	      0.76501779	     -0.31489452	     -0.29407689	      0.81283140	     -0.27857423	     -0.53760794	      0.81283140	     -0.19379298	     -0.53760794	      0.66939057	     -0.15745574	     -0.45088842	      0.62157696	     -0.09688801	     -0.34250008	      0.57376334	     -1.21116798	     -2.50124559	      4.25479945	      0.00000000	      0.00000000	     -2.59231823	      4.04406898	    -19.36283926	      4.05939558	     -8.44142983	     15.13575452	     90.11867881	     86.11032681	     -6.56726022	     19.52996699	    -11.80554535	    -31.04114088	     68.60119384	     38.40142789	     88.37895318	    -11.15307914	      1.37980747
      5.65000000	    -13.27260069	     -6.19826705	     49.73935093	      0.35146887	      1.07632163	      0.28337358	     13.18607257	     -7.39833889	    -11.36260159	     10.26135667	      0.17909446	     17.93207838	     14.49191545	      0.00000000	     21.04712384	     -0.31580231	    -23.13885512	     28.46355755	      0.49678280	     28.13508944	      9.80943912	      0.00000000	     -0.16432196	     -0.22935162	      0.86779368	     -0.30516230	     -0.30503766	      0.92203078	     -0.26996454	     -0.55764553	      0.92203078	     -0.18780356	     -0.55764553	      0.75931947	     -0.15258937	     -0.46769382	      0.70508236	     -0.09389357	     -0.35526566	      0.65084526	     -1.17373530	     -2.59447140	      4.82640811	      0.00000000	      0.00000000	     -2.68275786	      3.83111129	    -20.03424791	      3.44444147	     -8.53424612	     14.57260412	     91.90205128	     86.21879935	     -6.63213143	     20.11150574	    -11.77268444	    -30.84011407	     68.73942133	     37.78145228	     88.27476023	    -11.71469437	      0.47073038
      5.66666667	    -13.08164404	     -6.18899666	     49.64254281	      0.35063233	      1.07627835	      0.28124594	     12.98520584	     -7.31414604	    -10.42766167	     10.17768128	      0.17763405	     17.99133953	     14.36143318	      0.00000000	     20.65613253	     -0.18212024	    -23.30789287	     27.93289904	      0.48752106	     27.97436254	      8.72748111	      0.00000000	     -0.16100586	     -0.22324024	      0.85009773	     -0.29900399	     -0.29690952	      0.90322884	     -0.26451653	     -0.54278632	      0.90322884	     -0.18401360	     -0.54278632	      0.74383551	     -0.14951004	     -0.45523150	      0.69070441	     -0.09199875	     -0.34579913	      0.63757330	     -1.15004878	     -2.52533825	      4.72798855	      0.00000000	      0.00000000	     -2.58626047	      3.61316001	    -20.18748419	      3.26740076	     -8.63504669	     14.64134511	     92.92167789	     86.33451197	     -6.81610570	     20.69251915	    -12.38027420	    -30.40678155	     67.09110631	     37.14030739	     88.19388722	    -12.02423644	     -0.68041764
      5.68333333	    -12.75367608	     -6.22420138	     49.50828195	      0.34964305	      1.07600229	      0.27892860	     12.82035860	     -7.09947123	     -9.70117959	     10.24280924	      0.17877075	     18.04775540	     14.20389572	      0.00000000	     20.07607197	     -0.08569761	    -23.46111533	     27.25477982	      0.47568564	     27.10640819	      7.59894978	      0.00000000	     -0.16743799	     -0.20259424	      0.76610060	     -0.31094909	     -0.26945034	      0.81398189	     -0.27508387	     -0.49258763	      0.81398189	     -0.19136488	     -0.49258763	      0.67033802	     -0.15548292	     -0.41313017	      0.62245674	     -0.09567407	     -0.31381847	      0.57457545	     -1.19599281	     -2.29178654	      4.26082170	      0.00000000	      0.00000000	     -2.27732598	      3.55455851	    -19.70841138	      3.43903425	     -8.84854362	     15.18054270	     93.29166470	     86.56986384	     -6.80917565	     21.42667467	    -13.19177735	    -29.76560763	     64.63625181	     36.43834989	     88.10311246	    -11.89286904	     -2.17414660
      5.70000000	    -12.37102794	     -6.35921084	     49.59170252	      0.34817232	      1.07528600	      0.27637283	     12.80218793	     -6.81849436	     -9.11325277	     10.56974796	      0.18447690	     18.37986713	     13.66542010	      0.00000000	     19.48799823	      0.03165264	    -23.47042916	     26.52613269	      0.46296835	     25.80877571	      6.44132315	      0.00000000	     -0.16761732	     -0.17565993	      0.54604024	     -0.31128212	     -0.23362770	      0.58016775	     -0.27537849	     -0.42709955	      0.58016775	     -0.19156983	     -0.42709955	      0.47778521	     -0.15564944	     -0.35820573	      0.44365769	     -0.09577654	     -0.27209723	      0.40953018	     -1.19727374	     -1.98710024	      3.03691200	      0.00000000	      0.00000000	     -1.84687133	      3.90174611	    -18.59349869	      4.02723269	     -9.17189218	     16.37599057	     92.86870272	     86.73548808	     -6.73206379	     21.90104921	    -14.70312051	    -28.90482466	     59.72963097	     36.06029022	     88.23505972	    -10.01299058	     -3.03175561
      5.71666667	    -11.83357654	     -6.39358319	     49.20788162	      0.34665513	      1.07452667	      0.27387643	     12.88114265	     -6.47553635	     -8.53351306	     11.27690903	      0.19681919	     18.95484506	     13.68850365	      0.00000000	     18.54282691	      0.05202673	    -23.99896394	     25.56582147	      0.44620776	     24.52507233	      5.25662002	      0.00000000	     -0.19334358	     -0.13822520	      0.40990880	     -0.35905837	     -0.18383952	      0.43552810	     -0.31764418	     -0.33608075	      0.43552810	     -0.22097238	     -0.33608075	      0.35867020	     -0.17953885	     -0.28186883	      0.33305090	     -0.11047652	     -0.21411084	      0.30743160	     -1.38103389	     -1.56363112	      2.27978980	      0.00000000	      0.00000000	     -1.35782990	      4.44334793	    -17.18190127	      4.73694647	     -9.72762053	     17.62831838	     91.97609936	     86.90740000	     -6.29491692	     22.50017645	    -15.32554012	    -27.86917440	     56.98860972	     35.40937881	     87.88798683	     -8.76902808	     -3.72155303
      5.73333333	    -11.42049847	     -6.58447176	     49.31675573	      0.34491026	      1.07279381	      0.27160679	     13.05560977	     -6.10804340	     -7.68417629	     11.87695289	      0.20729193	     19.84890206	     12.97120779	      0.00000000	     17.93004391	      0.23370594	    -23.81930904	     24.71738083	      0.43139968	     23.52592663	      3.57514172	      0.00000000	     -0.18519600	     -0.12036334	      0.02051249	     -0.34392749	     -0.16008324	      0.02179452	     -0.30425851	     -0.29265143	      0.02179452	     -0.21166051	     -0.29265143	      0.01794843	     -0.17197301	     -0.24544492	      0.01666640	     -0.10582099	     -0.18644281	      0.01538437	     -1.32283651	     -1.36157418	      0.11408431	      0.00000000	      0.00000000	     -0.88842761	      5.42543056	    -14.80209022	      6.07100467	    -10.07356220	     20.06379730	     89.99070402	     86.69301327	     -6.37536539	     22.36226824	    -18.24761675	    -26.43514394	     46.94080684	     36.01022151	     88.44509941	     -3.92482513	     -2.47692521
